<svg width="425" height="144" viewBox="0 0 425 144" fill="none" xmlns="http://www.w3.org/2000/svg">
<path d="M2.38419e-07 143.4V115.8L41.8 69.6L1.6 29.6V0.599992L109.6 0.79999V31.8L67.6 31.6C65.6 31.6 62.9333 31.6 59.6 31.6C56.2667 31.4667 52.6 31.1333 48.6 30.6L79 62.8V70.6L42 113.2C46.2667 112.8 51.0667 112.533 56.4 112.4C61.8667 112.133 67 112 71.8 112H111V143.4H2.38419e-07ZM197.27 143.4H122.87V121.4L140.67 114.6V29.2L122.87 22.6V0.599992H197.27V22.6L179.47 29.2V114.6L197.27 121.4V143.4ZM219.556 143.4V0.599992H299.956V31.6H257.556V143.4H219.556ZM382.805 143.4L375.805 116.6H329.405L322.205 143.4H279.805L326.405 0H377.805L425.005 143.4H382.805ZM361.605 61.6C360.938 59.0667 360.005 55.4667 358.805 50.8C357.605 46 356.405 41.0667 355.205 36C354.005 30.9333 353.071 26.8 352.405 23.6C351.871 26.8 351.005 30.8 349.805 35.6C348.738 40.4 347.605 45.1333 346.405 49.8C345.338 54.4667 344.405 58.4 343.605 61.6L337.405 85H367.805L361.605 61.6Z" fill="#1B1B1B"/>
</svg>
