<svg width="100%" height="100%" viewBox="0 0 428 146" fill="none" xmlns="http://www.w3.org/2000/svg" preserveAspectRatio="none">
<mask id="path-1-outside-1_43_2" maskUnits="userSpaceOnUse" x="0" y="-0.599976" width="428" height="146" fill="black">
<rect fill="white" y="-0.599976" width="428" height="146"/>
<path d="M1 144.4V116.8L42.8 70.6L2.6 30.6V1.60002L110.6 1.80001V32.8L68.6 32.6C66.6 32.6 63.9333 32.6 60.6 32.6C57.2667 32.4667 53.6 32.1334 49.6 31.6L80 63.8V71.6L43 114.2C47.2667 113.8 52.0667 113.533 57.4 113.4C62.8667 113.133 68 113 72.8 113H112V144.4H1ZM198.27 144.4H123.87V122.4L141.67 115.6V30.2L123.87 23.6V1.60002H198.27V23.6L180.47 30.2V115.6L198.27 122.4V144.4ZM220.556 144.4V1.60002H300.956V32.6H258.556V144.4H220.556ZM383.805 144.4L376.805 117.6H330.405L323.205 144.4H280.805L327.405 1.00002H378.805L426.005 144.4H383.805ZM362.605 62.6C361.938 60.0667 361.005 56.4667 359.805 51.8C358.605 47 357.405 42.0667 356.205 37C355.005 31.9334 354.071 27.8 353.405 24.6C352.871 27.8 352.005 31.8 350.805 36.6C349.738 41.4 348.605 46.1334 347.405 50.8C346.338 55.4667 345.405 59.4 344.605 62.6L338.405 86H368.805L362.605 62.6Z"/>
</mask>
<path d="M1 144.4H2.38419e-07V145.4H1V144.4ZM1 116.8L0.258464 116.129L2.38419e-07 116.415V116.8H1ZM42.8 70.6L43.5415 71.2709L44.1813 70.5638L43.5053 69.8912L42.8 70.6ZM2.6 30.6H1.6V31.0157L1.89466 31.3089L2.6 30.6ZM2.6 1.60002L2.60185 0.600017L1.6 0.598162V1.60002H2.6ZM110.6 1.80001H111.6V0.801863L110.602 0.800014L110.6 1.80001ZM110.6 32.8L110.595 33.8L111.6 33.8048V32.8H110.6ZM68.6 32.6L68.6048 31.6H68.6V32.6ZM60.6 32.6L60.56 33.5992L60.58 33.6H60.6V32.6ZM49.6 31.6L49.7322 30.6088L46.9371 30.2361L48.8729 32.2865L49.6 31.6ZM80 63.8H81V63.4025L80.7271 63.1135L80 63.8ZM80 71.6L80.755 72.2558L81 71.9737V71.6H80ZM43 114.2L42.245 113.544L40.6084 115.429L43.0933 115.196L43 114.2ZM57.4 113.4L57.425 114.4L57.4369 114.399L57.4487 114.399L57.4 113.4ZM112 113H113V112H112V113ZM112 144.4V145.4H113V144.4H112ZM1 144.4H2V116.8H1H2.38419e-07V144.4H1ZM1 116.8L1.74154 117.471L43.5415 71.2709L42.8 70.6L42.0585 69.9291L0.258464 116.129L1 116.8ZM42.8 70.6L43.5053 69.8912L3.30534 29.8912L2.6 30.6L1.89466 31.3089L42.0947 71.3089L42.8 70.6ZM2.6 30.6H3.6V1.60002H2.6H1.6V30.6H2.6ZM2.6 1.60002L2.59815 2.60001L110.598 2.80001L110.6 1.80001L110.602 0.800014L2.60185 0.600017L2.6 1.60002ZM110.6 1.80001H109.6V32.8H110.6H111.6V1.80001H110.6ZM110.6 32.8L110.605 31.8L68.6048 31.6L68.6 32.6L68.5952 33.6L110.595 33.8L110.6 32.8ZM68.6 32.6V31.6C68.5961 31.6 68.5922 31.6 68.5883 31.6C68.5844 31.6 68.5805 31.6 68.5765 31.6C68.5726 31.6 68.5687 31.6 68.5648 31.6C68.5609 31.6 68.5569 31.6 68.553 31.6C68.5491 31.6 68.5452 31.6 68.5412 31.6C68.5373 31.6 68.5334 31.6 68.5294 31.6C68.5255 31.6 68.5215 31.6 68.5176 31.6C68.5137 31.6 68.5097 31.6 68.5058 31.6C68.5018 31.6 68.4979 31.6 68.4939 31.6C68.49 31.6 68.486 31.6 68.4821 31.6C68.4781 31.6 68.4741 31.6 68.4702 31.6C68.4662 31.6 68.4622 31.6 68.4583 31.6C68.4543 31.6 68.4503 31.6 68.4464 31.6C68.4424 31.6 68.4384 31.6 68.4344 31.6C68.4305 31.6 68.4265 31.6 68.4225 31.6C68.4185 31.6 68.4145 31.6 68.4106 31.6C68.4066 31.6 68.4026 31.6 68.3986 31.6C68.3946 31.6 68.3906 31.6 68.3866 31.6C68.3826 31.6 68.3786 31.6 68.3746 31.6C68.3706 31.6 68.3666 31.6 68.3626 31.6C68.3586 31.6 68.3546 31.6 68.3505 31.6C68.3465 31.6 68.3425 31.6 68.3385 31.6C68.3345 31.6 68.3305 31.6 68.3264 31.6C68.3224 31.6 68.3184 31.6 68.3144 31.6C68.3103 31.6 68.3063 31.6 68.3023 31.6C68.2982 31.6 68.2942 31.6 68.2902 31.6C68.2861 31.6 68.2821 31.6 68.278 31.6C68.274 31.6 68.2699 31.6 68.2659 31.6C68.2619 31.6 68.2578 31.6 68.2537 31.6C68.2497 31.6 68.2456 31.6 68.2416 31.6C68.2375 31.6 68.2335 31.6 68.2294 31.6C68.2253 31.6 68.2213 31.6 68.2172 31.6C68.2131 31.6 68.2091 31.6 68.205 31.6C68.2009 31.6 68.1968 31.6 68.1927 31.6C68.1887 31.6 68.1846 31.6 68.1805 31.6C68.1764 31.6 68.1723 31.6 68.1682 31.6C68.1642 31.6 68.1601 31.6 68.156 31.6C68.1519 31.6 68.1478 31.6 68.1437 31.6C68.1396 31.6 68.1355 31.6 68.1314 31.6C68.1273 31.6 68.1232 31.6 68.119 31.6C68.1149 31.6 68.1108 31.6 68.1067 31.6C68.1026 31.6 68.0985 31.6 68.0944 31.6C68.0902 31.6 68.0861 31.6 68.082 31.6C68.0779 31.6 68.0737 31.6 68.0696 31.6C68.0655 31.6 68.0613 31.6 68.0572 31.6C68.0531 31.6 68.0489 31.6 68.0448 31.6C68.0407 31.6 68.0365 31.6 68.0324 31.6C68.0282 31.6 68.0241 31.6 68.0199 31.6C68.0158 31.6 68.0116 31.6 68.0075 31.6C68.0033 31.6 67.9992 31.6 67.995 31.6C67.9908 31.6 67.9867 31.6 67.9825 31.6C67.9783 31.6 67.9742 31.6 67.97 31.6C67.9658 31.6 67.9617 31.6 67.9575 31.6C67.9533 31.6 67.9491 31.6 67.9449 31.6C67.9408 31.6 67.9366 31.6 67.9324 31.6C67.9282 31.6 67.924 31.6 67.9198 31.6C67.9156 31.6 67.9114 31.6 67.9072 31.6C67.9031 31.6 67.8989 31.6 67.8947 31.6C67.8905 31.6 67.8862 31.6 67.882 31.6C67.8778 31.6 67.8736 31.6 67.8694 31.6C67.8652 31.6 67.861 31.6 67.8568 31.6C67.8526 31.6 67.8483 31.6 67.8441 31.6C67.8399 31.6 67.8357 31.6 67.8314 31.6C67.8272 31.6 67.823 31.6 67.8188 31.6C67.8145 31.6 67.8103 31.6 67.8061 31.6C67.8018 31.6 67.7976 31.6 67.7933 31.6C67.7891 31.6 67.7848 31.6 67.7806 31.6C67.7764 31.6 67.7721 31.6 67.7679 31.6C67.7636 31.6 67.7593 31.6 67.7551 31.6C67.7508 31.6 67.7466 31.6 67.7423 31.6C67.738 31.6 67.7338 31.6 67.7295 31.6C67.7252 31.6 67.721 31.6 67.7167 31.6C67.7124 31.6 67.7082 31.6 67.7039 31.6C67.6996 31.6 67.6953 31.6 67.691 31.6C67.6868 31.6 67.6825 31.6 67.6782 31.6C67.6739 31.6 67.6696 31.6 67.6653 31.6C67.661 31.6 67.6567 31.6 67.6524 31.6C67.6481 31.6 67.6438 31.6 67.6395 31.6C67.6352 31.6 67.6309 31.6 67.6266 31.6C67.6223 31.6 67.618 31.6 67.6137 31.6C67.6094 31.6 67.605 31.6 67.6007 31.6C67.5964 31.6 67.5921 31.6 67.5878 31.6C67.5834 31.6 67.5791 31.6 67.5748 31.6C67.5705 31.6 67.5661 31.6 67.5618 31.6C67.5575 31.6 67.5531 31.6 67.5488 31.6C67.5445 31.6 67.5401 31.6 67.5358 31.6C67.5314 31.6 67.5271 31.6 67.5227 31.6C67.5184 31.6 67.514 31.6 67.5097 31.6C67.5053 31.6 67.501 31.6 67.4966 31.6C67.4922 31.6 67.4879 31.6 67.4835 31.6C67.4792 31.6 67.4748 31.6 67.4704 31.6C67.4661 31.6 67.4617 31.6 67.4573 31.6C67.4529 31.6 67.4486 31.6 67.4442 31.6C67.4398 31.6 67.4354 31.6 67.431 31.6C67.4266 31.6 67.4223 31.6 67.4179 31.6C67.4135 31.6 67.4091 31.6 67.4047 31.6C67.4003 31.6 67.3959 31.6 67.3915 31.6C67.3871 31.6 67.3827 31.6 67.3783 31.6C67.3739 31.6 67.3695 31.6 67.3651 31.6C67.3607 31.6 67.3563 31.6 67.3518 31.6C67.3474 31.6 67.343 31.6 67.3386 31.6C67.3342 31.6 67.3297 31.6 67.3253 31.6C67.3209 31.6 67.3165 31.6 67.312 31.6C67.3076 31.6 67.3032 31.6 67.2987 31.6C67.2943 31.6 67.2899 31.6 67.2854 31.6C67.281 31.6 67.2765 31.6 67.2721 31.6C67.2676 31.6 67.2632 31.6 67.2587 31.6C67.2543 31.6 67.2498 31.6 67.2454 31.6C67.2409 31.6 67.2365 31.6 67.232 31.6C67.2276 31.6 67.2231 31.6 67.2186 31.6C67.2142 31.6 67.2097 31.6 67.2052 31.6C67.2008 31.6 67.1963 31.6 67.1918 31.6C67.1873 31.6 67.1828 31.6 67.1784 31.6C67.1739 31.6 67.1694 31.6 67.1649 31.6C67.1604 31.6 67.1559 31.6 67.1514 31.6C67.147 31.6 67.1425 31.6 67.138 31.6C67.1335 31.6 67.129 31.6 67.1245 31.6C67.12 31.6 67.1155 31.6 67.111 31.6C67.1065 31.6 67.1019 31.6 67.0974 31.6C67.0929 31.6 67.0884 31.6 67.0839 31.6C67.0794 31.6 67.0749 31.6 67.0703 31.6C67.0658 31.6 67.0613 31.6 67.0568 31.6C67.0522 31.6 67.0477 31.6 67.0432 31.6C67.0386 31.6 67.0341 31.6 67.0296 31.6C67.025 31.6 67.0205 31.6 67.016 31.6C67.0114 31.6 67.0069 31.6 67.0023 31.6C66.9978 31.6 66.9932 31.6 66.9887 31.6C66.9841 31.6 66.9796 31.6 66.975 31.6C66.9704 31.6 66.9659 31.6 66.9613 31.6C66.9568 31.6 66.9522 31.6 66.9476 31.6C66.9431 31.6 66.9385 31.6 66.9339 31.6C66.9293 31.6 66.9248 31.6 66.9202 31.6C66.9156 31.6 66.911 31.6 66.9065 31.6C66.9019 31.6 66.8973 31.6 66.8927 31.6C66.8881 31.6 66.8835 31.6 66.8789 31.6C66.8743 31.6 66.8697 31.6 66.8651 31.6C66.8605 31.6 66.8559 31.6 66.8513 31.6C66.8467 31.6 66.8421 31.6 66.8375 31.6C66.8329 31.6 66.8283 31.6 66.8237 31.6C66.8191 31.6 66.8145 31.6 66.8098 31.6C66.8052 31.6 66.8006 31.6 66.796 31.6C66.7914 31.6 66.7867 31.6 66.7821 31.6C66.7775 31.6 66.7728 31.6 66.7682 31.6C66.7636 31.6 66.7589 31.6 66.7543 31.6C66.7497 31.6 66.745 31.6 66.7404 31.6C66.7357 31.6 66.7311 31.6 66.7264 31.6C66.7218 31.6 66.7171 31.6 66.7125 31.6C66.7078 31.6 66.7032 31.6 66.6985 31.6C66.6939 31.6 66.6892 31.6 66.6845 31.6C66.6799 31.6 66.6752 31.6 66.6705 31.6C66.6659 31.6 66.6612 31.6 66.6565 31.6C66.6518 31.6 66.6472 31.6 66.6425 31.6C66.6378 31.6 66.6331 31.6 66.6284 31.6C66.6238 31.6 66.6191 31.6 66.6144 31.6C66.6097 31.6 66.605 31.6 66.6003 31.6C66.5956 31.6 66.5909 31.6 66.5862 31.6C66.5815 31.6 66.5768 31.6 66.5721 31.6C66.5674 31.6 66.5627 31.6 66.558 31.6C66.5533 31.6 66.5486 31.6 66.5438 31.6C66.5391 31.6 66.5344 31.6 66.5297 31.6C66.525 31.6 66.5202 31.6 66.5155 31.6C66.5108 31.6 66.5061 31.6 66.5013 31.6C66.4966 31.6 66.4919 31.6 66.4871 31.6C66.4824 31.6 66.4777 31.6 66.4729 31.6C66.4682 31.6 66.4634 31.6 66.4587 31.6C66.454 31.6 66.4492 31.6 66.4445 31.6C66.4397 31.6 66.435 31.6 66.4302 31.6C66.4254 31.6 66.4207 31.6 66.4159 31.6C66.4112 31.6 66.4064 31.6 66.4016 31.6C66.3969 31.6 66.3921 31.6 66.3873 31.6C66.3826 31.6 66.3778 31.6 66.373 31.6C66.3682 31.6 66.3635 31.6 66.3587 31.6C66.3539 31.6 66.3491 31.6 66.3443 31.6C66.3395 31.6 66.3347 31.6 66.33 31.6C66.3252 31.6 66.3204 31.6 66.3156 31.6C66.3108 31.6 66.306 31.6 66.3012 31.6C66.2964 31.6 66.2916 31.6 66.2868 31.6C66.282 31.6 66.2771 31.6 66.2723 31.6C66.2675 31.6 66.2627 31.6 66.2579 31.6C66.2531 31.6 66.2483 31.6 66.2434 31.6C66.2386 31.6 66.2338 31.6 66.229 31.6C66.2241 31.6 66.2193 31.6 66.2145 31.6C66.2096 31.6 66.2048 31.6 66.2 31.6C66.1951 31.6 66.1903 31.6 66.1855 31.6C66.1806 31.6 66.1758 31.6 66.1709 31.6C66.1661 31.6 66.1612 31.6 66.1564 31.6C66.1515 31.6 66.1467 31.6 66.1418 31.6C66.1369 31.6 66.1321 31.6 66.1272 31.6C66.1224 31.6 66.1175 31.6 66.1126 31.6C66.1078 31.6 66.1029 31.6 66.098 31.6C66.0931 31.6 66.0883 31.6 66.0834 31.6C66.0785 31.6 66.0736 31.6 66.0688 31.6C66.0639 31.6 66.059 31.6 66.0541 31.6C66.0492 31.6 66.0443 31.6 66.0394 31.6C66.0345 31.6 66.0296 31.6 66.0247 31.6C66.0198 31.6 66.0149 31.6 66.01 31.6C66.0051 31.6 66.0002 31.6 65.9953 31.6C65.9904 31.6 65.9855 31.6 65.9806 31.6C65.9757 31.6 65.9708 31.6 65.9658 31.6C65.9609 31.6 65.956 31.6 65.9511 31.6C65.9462 31.6 65.9412 31.6 65.9363 31.6C65.9314 31.6 65.9264 31.6 65.9215 31.6C65.9166 31.6 65.9116 31.6 65.9067 31.6C65.9018 31.6 65.8968 31.6 65.8919 31.6C65.8869 31.6 65.882 31.6 65.877 31.6C65.8721 31.6 65.8671 31.6 65.8622 31.6C65.8572 31.6 65.8523 31.6 65.8473 31.6C65.8424 31.6 65.8374 31.6 65.8324 31.6C65.8275 31.6 65.8225 31.6 65.8175 31.6C65.8126 31.6 65.8076 31.6 65.8026 31.6C65.7976 31.6 65.7927 31.6 65.7877 31.6C65.7827 31.6 65.7777 31.6 65.7727 31.6C65.7677 31.6 65.7628 31.6 65.7578 31.6C65.7528 31.6 65.7478 31.6 65.7428 31.6C65.7378 31.6 65.7328 31.6 65.7278 31.6C65.7228 31.6 65.7178 31.6 65.7128 31.6C65.7078 31.6 65.7028 31.6 65.6978 31.6C65.6928 31.6 65.6878 31.6 65.6827 31.6C65.6777 31.6 65.6727 31.6 65.6677 31.6C65.6627 31.6 65.6576 31.6 65.6526 31.6C65.6476 31.6 65.6426 31.6 65.6375 31.6C65.6325 31.6 65.6275 31.6 65.6224 31.6C65.6174 31.6 65.6124 31.6 65.6073 31.6C65.6023 31.6 65.5972 31.6 65.5922 31.6C65.5871 31.6 65.5821 31.6 65.577 31.6C65.572 31.6 65.5669 31.6 65.5619 31.6C65.5568 31.6 65.5518 31.6 65.5467 31.6C65.5417 31.6 65.5366 31.6 65.5315 31.6C65.5265 31.6 65.5214 31.6 65.5163 31.6C65.5112 31.6 65.5062 31.6 65.5011 31.6C65.496 31.6 65.4909 31.6 65.4859 31.6C65.4808 31.6 65.4757 31.6 65.4706 31.6C65.4655 31.6 65.4604 31.6 65.4553 31.6C65.4503 31.6 65.4452 31.6 65.4401 31.6C65.435 31.6 65.4299 31.6 65.4248 31.6C65.4197 31.6 65.4146 31.6 65.4095 31.6C65.4043 31.6 65.3992 31.6 65.3941 31.6C65.389 31.6 65.3839 31.6 65.3788 31.6C65.3737 31.6 65.3685 31.6 65.3634 31.6C65.3583 31.6 65.3532 31.6 65.3481 31.6C65.3429 31.6 65.3378 31.6 65.3327 31.6C65.3275 31.6 65.3224 31.6 65.3173 31.6C65.3121 31.6 65.307 31.6 65.3018 31.6C65.2967 31.6 65.2916 31.6 65.2864 31.6C65.2813 31.6 65.2761 31.6 65.271 31.6C65.2658 31.6 65.2606 31.6 65.2555 31.6C65.2503 31.6 65.2452 31.6 65.24 31.6C65.2348 31.6 65.2297 31.6 65.2245 31.6C65.2193 31.6 65.2142 31.6 65.209 31.6C65.2038 31.6 65.1987 31.6 65.1935 31.6C65.1883 31.6 65.1831 31.6 65.1779 31.6C65.1728 31.6 65.1676 31.6 65.1624 31.6C65.1572 31.6 65.152 31.6 65.1468 31.6C65.1416 31.6 65.1364 31.6 65.1312 31.6C65.126 31.6 65.1208 31.6 65.1156 31.6C65.1104 31.6 65.1052 31.6 65.1 31.6C65.0948 31.6 65.0896 31.6 65.0844 31.6C65.0792 31.6 65.0739 31.6 65.0687 31.6C65.0635 31.6 65.0583 31.6 65.0531 31.6C65.0478 31.6 65.0426 31.6 65.0374 31.6C65.0322 31.6 65.0269 31.6 65.0217 31.6C65.0165 31.6 65.0112 31.6 65.006 31.6C65.0007 31.6 64.9955 31.6 64.9903 31.6C64.985 31.6 64.9798 31.6 64.9745 31.6C64.9693 31.6 64.964 31.6 64.9588 31.6C64.9535 31.6 64.9482 31.6 64.943 31.6C64.9377 31.6 64.9325 31.6 64.9272 31.6C64.9219 31.6 64.9167 31.6 64.9114 31.6C64.9061 31.6 64.9009 31.6 64.8956 31.6C64.8903 31.6 64.885 31.6 64.8798 31.6C64.8745 31.6 64.8692 31.6 64.8639 31.6C64.8586 31.6 64.8533 31.6 64.8481 31.6C64.8428 31.6 64.8375 31.6 64.8322 31.6C64.8269 31.6 64.8216 31.6 64.8163 31.6C64.811 31.6 64.8057 31.6 64.8004 31.6C64.7951 31.6 64.7898 31.6 64.7845 31.6C64.7791 31.6 64.7738 31.6 64.7685 31.6C64.7632 31.6 64.7579 31.6 64.7526 31.6C64.7472 31.6 64.7419 31.6 64.7366 31.6C64.7313 31.6 64.7259 31.6 64.7206 31.6C64.7153 31.6 64.7099 31.6 64.7046 31.6C64.6993 31.6 64.6939 31.6 64.6886 31.6C64.6833 31.6 64.6779 31.6 64.6726 31.6C64.6672 31.6 64.6619 31.6 64.6565 31.6C64.6512 31.6 64.6458 31.6 64.6405 31.6C64.6351 31.6 64.6297 31.6 64.6244 31.6C64.619 31.6 64.6137 31.6 64.6083 31.6C64.6029 31.6 64.5976 31.6 64.5922 31.6C64.5868 31.6 64.5814 31.6 64.5761 31.6C64.5707 31.6 64.5653 31.6 64.5599 31.6C64.5546 31.6 64.5492 31.6 64.5438 31.6C64.5384 31.6 64.533 31.6 64.5276 31.6C64.5222 31.6 64.5168 31.6 64.5114 31.6C64.506 31.6 64.5006 31.6 64.4952 31.6C64.4898 31.6 64.4844 31.6 64.479 31.6C64.4736 31.6 64.4682 31.6 64.4628 31.6C64.4574 31.6 64.452 31.6 64.4466 31.6C64.4411 31.6 64.4357 31.6 64.4303 31.6C64.4249 31.6 64.4194 31.6 64.414 31.6C64.4086 31.6 64.4032 31.6 64.3977 31.6C64.3923 31.6 64.3869 31.6 64.3814 31.6C64.376 31.6 64.3706 31.6 64.3651 31.6C64.3597 31.6 64.3542 31.6 64.3488 31.6C64.3433 31.6 64.3379 31.6 64.3324 31.6C64.327 31.6 64.3215 31.6 64.3161 31.6C64.3106 31.6 64.3051 31.6 64.2997 31.6C64.2942 31.6 64.2888 31.6 64.2833 31.6C64.2778 31.6 64.2723 31.6 64.2669 31.6C64.2614 31.6 64.2559 31.6 64.2504 31.6C64.245 31.6 64.2395 31.6 64.234 31.6C64.2285 31.6 64.223 31.6 64.2175 31.6C64.2121 31.6 64.2066 31.6 64.2011 31.6C64.1956 31.6 64.1901 31.6 64.1846 31.6C64.1791 31.6 64.1736 31.6 64.1681 31.6C64.1626 31.6 64.1571 31.6 64.1516 31.6C64.1461 31.6 64.1406 31.6 64.135 31.6C64.1295 31.6 64.124 31.6 64.1185 31.6C64.113 31.6 64.1074 31.6 64.1019 31.6C64.0964 31.6 64.0909 31.6 64.0853 31.6C64.0798 31.6 64.0743 31.6 64.0688 31.6C64.0632 31.6 64.0577 31.6 64.0521 31.6C64.0466 31.6 64.0411 31.6 64.0355 31.6C64.03 31.6 64.0244 31.6 64.0189 31.6C64.0133 31.6 64.0078 31.6 64.0022 31.6C63.9967 31.6 63.9911 31.6 63.9856 31.6C63.98 31.6 63.9744 31.6 63.9689 31.6C63.9633 31.6 63.9577 31.6 63.9522 31.6C63.9466 31.6 63.941 31.6 63.9355 31.6C63.9299 31.6 63.9243 31.6 63.9187 31.6C63.9131 31.6 63.9076 31.6 63.902 31.6C63.8964 31.6 63.8908 31.6 63.8852 31.6C63.8796 31.6 63.874 31.6 63.8684 31.6C63.8628 31.6 63.8572 31.6 63.8516 31.6C63.846 31.6 63.8404 31.6 63.8348 31.6C63.8292 31.6 63.8236 31.6 63.818 31.6C63.8124 31.6 63.8068 31.6 63.8012 31.6C63.7956 31.6 63.7899 31.6 63.7843 31.6C63.7787 31.6 63.7731 31.6 63.7675 31.6C63.7618 31.6 63.7562 31.6 63.7506 31.6C63.7449 31.6 63.7393 31.6 63.7337 31.6C63.728 31.6 63.7224 31.6 63.7168 31.6C63.7111 31.6 63.7055 31.6 63.6998 31.6C63.6942 31.6 63.6885 31.6 63.6829 31.6C63.6772 31.6 63.6716 31.6 63.6659 31.6C63.6603 31.6 63.6546 31.6 63.6489 31.6C63.6433 31.6 63.6376 31.6 63.632 31.6C63.6263 31.6 63.6206 31.6 63.6149 31.6C63.6093 31.6 63.6036 31.6 63.5979 31.6C63.5923 31.6 63.5866 31.6 63.5809 31.6C63.5752 31.6 63.5695 31.6 63.5638 31.6C63.5582 31.6 63.5525 31.6 63.5468 31.6C63.5411 31.6 63.5354 31.6 63.5297 31.6C63.524 31.6 63.5183 31.6 63.5126 31.6C63.5069 31.6 63.5012 31.6 63.4955 31.6C63.4898 31.6 63.4841 31.6 63.4784 31.6C63.4726 31.6 63.4669 31.6 63.4612 31.6C63.4555 31.6 63.4498 31.6 63.4441 31.6C63.4383 31.6 63.4326 31.6 63.4269 31.6C63.4211 31.6 63.4154 31.6 63.4097 31.6C63.404 31.6 63.3982 31.6 63.3925 31.6C63.3867 31.6 63.381 31.6 63.3753 31.6C63.3695 31.6 63.3638 31.6 63.358 31.6C63.3523 31.6 63.3465 31.6 63.3408 31.6C63.335 31.6 63.3293 31.6 63.3235 31.6C63.3178 31.6 63.312 31.6 63.3062 31.6C63.3005 31.6 63.2947 31.6 63.2889 31.6C63.2832 31.6 63.2774 31.6 63.2716 31.6C63.2659 31.6 63.2601 31.6 63.2543 31.6C63.2485 31.6 63.2427 31.6 63.237 31.6C63.2312 31.6 63.2254 31.6 63.2196 31.6C63.2138 31.6 63.208 31.6 63.2022 31.6C63.1964 31.6 63.1906 31.6 63.1848 31.6C63.179 31.6 63.1732 31.6 63.1674 31.6C63.1616 31.6 63.1558 31.6 63.15 31.6C63.1442 31.6 63.1384 31.6 63.1326 31.6C63.1268 31.6 63.121 31.6 63.1151 31.6C63.1093 31.6 63.1035 31.6 63.0977 31.6C63.0919 31.6 63.086 31.6 63.0802 31.6C63.0744 31.6 63.0685 31.6 63.0627 31.6C63.0569 31.6 63.051 31.6 63.0452 31.6C63.0394 31.6 63.0335 31.6 63.0277 31.6C63.0218 31.6 63.016 31.6 63.0101 31.6C63.0043 31.6 62.9984 31.6 62.9926 31.6C62.9867 31.6 62.9809 31.6 62.975 31.6C62.9691 31.6 62.9633 31.6 62.9574 31.6C62.9516 31.6 62.9457 31.6 62.9398 31.6C62.9339 31.6 62.9281 31.6 62.9222 31.6C62.9163 31.6 62.9104 31.6 62.9046 31.6C62.8987 31.6 62.8928 31.6 62.8869 31.6C62.881 31.6 62.8751 31.6 62.8693 31.6C62.8634 31.6 62.8575 31.6 62.8516 31.6C62.8457 31.6 62.8398 31.6 62.8339 31.6C62.828 31.6 62.8221 31.6 62.8162 31.6C62.8103 31.6 62.8044 31.6 62.7985 31.6C62.7925 31.6 62.7866 31.6 62.7807 31.6C62.7748 31.6 62.7689 31.6 62.763 31.6C62.757 31.6 62.7511 31.6 62.7452 31.6C62.7393 31.6 62.7333 31.6 62.7274 31.6C62.7215 31.6 62.7155 31.6 62.7096 31.6C62.7037 31.6 62.6977 31.6 62.6918 31.6C62.6859 31.6 62.6799 31.6 62.674 31.6C62.668 31.6 62.6621 31.6 62.6561 31.6C62.6502 31.6 62.6442 31.6 62.6383 31.6C62.6323 31.6 62.6263 31.6 62.6204 31.6C62.6144 31.6 62.6085 31.6 62.6025 31.6C62.5965 31.6 62.5906 31.6 62.5846 31.6C62.5786 31.6 62.5726 31.6 62.5667 31.6C62.5607 31.6 62.5547 31.6 62.5487 31.6C62.5428 31.6 62.5368 31.6 62.5308 31.6C62.5248 31.6 62.5188 31.6 62.5128 31.6C62.5068 31.6 62.5008 31.6 62.4948 31.6C62.4888 31.6 62.4828 31.6 62.4768 31.6C62.4708 31.6 62.4648 31.6 62.4588 31.6C62.4528 31.6 62.4468 31.6 62.4408 31.6C62.4348 31.6 62.4288 31.6 62.4227 31.6C62.4167 31.6 62.4107 31.6 62.4047 31.6C62.3987 31.6 62.3926 31.6 62.3866 31.6C62.3806 31.6 62.3746 31.6 62.3685 31.6C62.3625 31.6 62.3565 31.6 62.3504 31.6C62.3444 31.6 62.3383 31.6 62.3323 31.6C62.3263 31.6 62.3202 31.6 62.3142 31.6C62.3081 31.6 62.3021 31.6 62.296 31.6C62.29 31.6 62.2839 31.6 62.2779 31.6C62.2718 31.6 62.2657 31.6 62.2597 31.6C62.2536 31.6 62.2475 31.6 62.2415 31.6C62.2354 31.6 62.2293 31.6 62.2233 31.6C62.2172 31.6 62.2111 31.6 62.205 31.6C62.199 31.6 62.1929 31.6 62.1868 31.6C62.1807 31.6 62.1746 31.6 62.1685 31.6C62.1624 31.6 62.1564 31.6 62.1503 31.6C62.1442 31.6 62.1381 31.6 62.132 31.6C62.1259 31.6 62.1198 31.6 62.1137 31.6C62.1076 31.6 62.1015 31.6 62.0954 31.6C62.0892 31.6 62.0831 31.6 62.077 31.6C62.0709 31.6 62.0648 31.6 62.0587 31.6C62.0526 31.6 62.0464 31.6 62.0403 31.6C62.0342 31.6 62.0281 31.6 62.0219 31.6C62.0158 31.6 62.0097 31.6 62.0035 31.6C61.9974 31.6 61.9913 31.6 61.9851 31.6C61.979 31.6 61.9728 31.6 61.9667 31.6C61.9606 31.6 61.9544 31.6 61.9483 31.6C61.9421 31.6 61.936 31.6 61.9298 31.6C61.9237 31.6 61.9175 31.6 61.9113 31.6C61.9052 31.6 61.899 31.6 61.8928 31.6C61.8867 31.6 61.8805 31.6 61.8743 31.6C61.8682 31.6 61.862 31.6 61.8558 31.6C61.8497 31.6 61.8435 31.6 61.8373 31.6C61.8311 31.6 61.8249 31.6 61.8188 31.6C61.8126 31.6 61.8064 31.6 61.8002 31.6C61.794 31.6 61.7878 31.6 61.7816 31.6C61.7754 31.6 61.7692 31.6 61.763 31.6C61.7568 31.6 61.7506 31.6 61.7444 31.6C61.7382 31.6 61.732 31.6 61.7258 31.6C61.7196 31.6 61.7134 31.6 61.7071 31.6C61.7009 31.6 61.6947 31.6 61.6885 31.6C61.6823 31.6 61.6761 31.6 61.6698 31.6C61.6636 31.6 61.6574 31.6 61.6511 31.6C61.6449 31.6 61.6387 31.6 61.6324 31.6C61.6262 31.6 61.62 31.6 61.6137 31.6C61.6075 31.6 61.6012 31.6 61.595 31.6C61.5888 31.6 61.5825 31.6 61.5763 31.6C61.57 31.6 61.5637 31.6 61.5575 31.6C61.5512 31.6 61.545 31.6 61.5387 31.6C61.5325 31.6 61.5262 31.6 61.5199 31.6C61.5137 31.6 61.5074 31.6 61.5011 31.6C61.4948 31.6 61.4886 31.6 61.4823 31.6C61.476 31.6 61.4697 31.6 61.4635 31.6C61.4572 31.6 61.4509 31.6 61.4446 31.6C61.4383 31.6 61.432 31.6 61.4257 31.6C61.4194 31.6 61.4132 31.6 61.4069 31.6C61.4006 31.6 61.3943 31.6 61.388 31.6C61.3817 31.6 61.3754 31.6 61.369 31.6C61.3627 31.6 61.3564 31.6 61.3501 31.6C61.3438 31.6 61.3375 31.6 61.3312 31.6C61.3249 31.6 61.3185 31.6 61.3122 31.6C61.3059 31.6 61.2996 31.6 61.2932 31.6C61.2869 31.6 61.2806 31.6 61.2742 31.6C61.2679 31.6 61.2616 31.6 61.2552 31.6C61.2489 31.6 61.2426 31.6 61.2362 31.6C61.2299 31.6 61.2235 31.6 61.2172 31.6C61.2108 31.6 61.2045 31.6 61.1981 31.6C61.1918 31.6 61.1854 31.6 61.1791 31.6C61.1727 31.6 61.1664 31.6 61.16 31.6C61.1536 31.6 61.1473 31.6 61.1409 31.6C61.1345 31.6 61.1282 31.6 61.1218 31.6C61.1154 31.6 61.109 31.6 61.1027 31.6C61.0963 31.6 61.0899 31.6 61.0835 31.6C61.0771 31.6 61.0707 31.6 61.0644 31.6C61.058 31.6 61.0516 31.6 61.0452 31.6C61.0388 31.6 61.0324 31.6 61.026 31.6C61.0196 31.6 61.0132 31.6 61.0068 31.6C61.0004 31.6 60.994 31.6 60.9876 31.6C60.9812 31.6 60.9748 31.6 60.9683 31.6C60.9619 31.6 60.9555 31.6 60.9491 31.6C60.9427 31.6 60.9363 31.6 60.9298 31.6C60.9234 31.6 60.917 31.6 60.9105 31.6C60.9041 31.6 60.8977 31.6 60.8913 31.6C60.8848 31.6 60.8784 31.6 60.8719 31.6C60.8655 31.6 60.8591 31.6 60.8526 31.6C60.8462 31.6 60.8397 31.6 60.8333 31.6C60.8268 31.6 60.8204 31.6 60.8139 31.6C60.8075 31.6 60.801 31.6 60.7946 31.6C60.7881 31.6 60.7816 31.6 60.7752 31.6C60.7687 31.6 60.7622 31.6 60.7558 31.6C60.7493 31.6 60.7428 31.6 60.7363 31.6C60.7299 31.6 60.7234 31.6 60.7169 31.6C60.7104 31.6 60.704 31.6 60.6975 31.6C60.691 31.6 60.6845 31.6 60.678 31.6C60.6715 31.6 60.665 31.6 60.6585 31.6C60.652 31.6 60.6455 31.6 60.639 31.6C60.6325 31.6 60.626 31.6 60.6195 31.6C60.613 31.6 60.6065 31.6 60.6 31.6V32.6V33.6C60.6065 33.6 60.613 33.6 60.6195 33.6C60.626 33.6 60.6325 33.6 60.639 33.6C60.6455 33.6 60.652 33.6 60.6585 33.6C60.665 33.6 60.6715 33.6 60.678 33.6C60.6845 33.6 60.691 33.6 60.6975 33.6C60.704 33.6 60.7104 33.6 60.7169 33.6C60.7234 33.6 60.7299 33.6 60.7363 33.6C60.7428 33.6 60.7493 33.6 60.7558 33.6C60.7622 33.6 60.7687 33.6 60.7752 33.6C60.7816 33.6 60.7881 33.6 60.7946 33.6C60.801 33.6 60.8075 33.6 60.8139 33.6C60.8204 33.6 60.8268 33.6 60.8333 33.6C60.8397 33.6 60.8462 33.6 60.8526 33.6C60.8591 33.6 60.8655 33.6 60.8719 33.6C60.8784 33.6 60.8848 33.6 60.8913 33.6C60.8977 33.6 60.9041 33.6 60.9105 33.6C60.917 33.6 60.9234 33.6 60.9298 33.6C60.9363 33.6 60.9427 33.6 60.9491 33.6C60.9555 33.6 60.9619 33.6 60.9683 33.6C60.9748 33.6 60.9812 33.6 60.9876 33.6C60.994 33.6 61.0004 33.6 61.0068 33.6C61.0132 33.6 61.0196 33.6 61.026 33.6C61.0324 33.6 61.0388 33.6 61.0452 33.6C61.0516 33.6 61.058 33.6 61.0644 33.6C61.0707 33.6 61.0771 33.6 61.0835 33.6C61.0899 33.6 61.0963 33.6 61.1027 33.6C61.109 33.6 61.1154 33.6 61.1218 33.6C61.1282 33.6 61.1345 33.6 61.1409 33.6C61.1473 33.6 61.1536 33.6 61.16 33.6C61.1664 33.6 61.1727 33.6 61.1791 33.6C61.1854 33.6 61.1918 33.6 61.1981 33.6C61.2045 33.6 61.2108 33.6 61.2172 33.6C61.2235 33.6 61.2299 33.6 61.2362 33.6C61.2426 33.6 61.2489 33.6 61.2552 33.6C61.2616 33.6 61.2679 33.6 61.2742 33.6C61.2806 33.6 61.2869 33.6 61.2932 33.6C61.2996 33.6 61.3059 33.6 61.3122 33.6C61.3185 33.6 61.3249 33.6 61.3312 33.6C61.3375 33.6 61.3438 33.6 61.3501 33.6C61.3564 33.6 61.3627 33.6 61.369 33.6C61.3754 33.6 61.3817 33.6 61.388 33.6C61.3943 33.6 61.4006 33.6 61.4069 33.6C61.4132 33.6 61.4194 33.6 61.4257 33.6C61.432 33.6 61.4383 33.6 61.4446 33.6C61.4509 33.6 61.4572 33.6 61.4635 33.6C61.4697 33.6 61.476 33.6 61.4823 33.6C61.4886 33.6 61.4948 33.6 61.5011 33.6C61.5074 33.6 61.5137 33.6 61.5199 33.6C61.5262 33.6 61.5325 33.6 61.5387 33.6C61.545 33.6 61.5512 33.6 61.5575 33.6C61.5637 33.6 61.57 33.6 61.5763 33.6C61.5825 33.6 61.5888 33.6 61.595 33.6C61.6012 33.6 61.6075 33.6 61.6137 33.6C61.62 33.6 61.6262 33.6 61.6324 33.6C61.6387 33.6 61.6449 33.6 61.6511 33.6C61.6574 33.6 61.6636 33.6 61.6698 33.6C61.6761 33.6 61.6823 33.6 61.6885 33.6C61.6947 33.6 61.7009 33.6 61.7071 33.6C61.7134 33.6 61.7196 33.6 61.7258 33.6C61.732 33.6 61.7382 33.6 61.7444 33.6C61.7506 33.6 61.7568 33.6 61.763 33.6C61.7692 33.6 61.7754 33.6 61.7816 33.6C61.7878 33.6 61.794 33.6 61.8002 33.6C61.8064 33.6 61.8126 33.6 61.8188 33.6C61.8249 33.6 61.8311 33.6 61.8373 33.6C61.8435 33.6 61.8497 33.6 61.8558 33.6C61.862 33.6 61.8682 33.6 61.8743 33.6C61.8805 33.6 61.8867 33.6 61.8928 33.6C61.899 33.6 61.9052 33.6 61.9113 33.6C61.9175 33.6 61.9237 33.6 61.9298 33.6C61.936 33.6 61.9421 33.6 61.9483 33.6C61.9544 33.6 61.9606 33.6 61.9667 33.6C61.9728 33.6 61.979 33.6 61.9851 33.6C61.9913 33.6 61.9974 33.6 62.0035 33.6C62.0097 33.6 62.0158 33.6 62.0219 33.6C62.0281 33.6 62.0342 33.6 62.0403 33.6C62.0464 33.6 62.0526 33.6 62.0587 33.6C62.0648 33.6 62.0709 33.6 62.077 33.6C62.0831 33.6 62.0892 33.6 62.0954 33.6C62.1015 33.6 62.1076 33.6 62.1137 33.6C62.1198 33.6 62.1259 33.6 62.132 33.6C62.1381 33.6 62.1442 33.6 62.1503 33.6C62.1564 33.6 62.1624 33.6 62.1685 33.6C62.1746 33.6 62.1807 33.6 62.1868 33.6C62.1929 33.6 62.199 33.6 62.205 33.6C62.2111 33.6 62.2172 33.6 62.2233 33.6C62.2293 33.6 62.2354 33.6 62.2415 33.6C62.2475 33.6 62.2536 33.6 62.2597 33.6C62.2657 33.6 62.2718 33.6 62.2779 33.6C62.2839 33.6 62.29 33.6 62.296 33.6C62.3021 33.6 62.3081 33.6 62.3142 33.6C62.3202 33.6 62.3263 33.6 62.3323 33.6C62.3383 33.6 62.3444 33.6 62.3504 33.6C62.3565 33.6 62.3625 33.6 62.3685 33.6C62.3746 33.6 62.3806 33.6 62.3866 33.6C62.3926 33.6 62.3987 33.6 62.4047 33.6C62.4107 33.6 62.4167 33.6 62.4227 33.6C62.4288 33.6 62.4348 33.6 62.4408 33.6C62.4468 33.6 62.4528 33.6 62.4588 33.6C62.4648 33.6 62.4708 33.6 62.4768 33.6C62.4828 33.6 62.4888 33.6 62.4948 33.6C62.5008 33.6 62.5068 33.6 62.5128 33.6C62.5188 33.6 62.5248 33.6 62.5308 33.6C62.5368 33.6 62.5428 33.6 62.5487 33.6C62.5547 33.6 62.5607 33.6 62.5667 33.6C62.5726 33.6 62.5786 33.6 62.5846 33.6C62.5906 33.6 62.5965 33.6 62.6025 33.6C62.6085 33.6 62.6144 33.6 62.6204 33.6C62.6263 33.6 62.6323 33.6 62.6383 33.6C62.6442 33.6 62.6502 33.6 62.6561 33.6C62.6621 33.6 62.668 33.6 62.674 33.6C62.6799 33.6 62.6859 33.6 62.6918 33.6C62.6977 33.6 62.7037 33.6 62.7096 33.6C62.7155 33.6 62.7215 33.6 62.7274 33.6C62.7333 33.6 62.7393 33.6 62.7452 33.6C62.7511 33.6 62.757 33.6 62.763 33.6C62.7689 33.6 62.7748 33.6 62.7807 33.6C62.7866 33.6 62.7925 33.6 62.7985 33.6C62.8044 33.6 62.8103 33.6 62.8162 33.6C62.8221 33.6 62.828 33.6 62.8339 33.6C62.8398 33.6 62.8457 33.6 62.8516 33.6C62.8575 33.6 62.8634 33.6 62.8693 33.6C62.8751 33.6 62.881 33.6 62.8869 33.6C62.8928 33.6 62.8987 33.6 62.9046 33.6C62.9104 33.6 62.9163 33.6 62.9222 33.6C62.9281 33.6 62.9339 33.6 62.9398 33.6C62.9457 33.6 62.9516 33.6 62.9574 33.6C62.9633 33.6 62.9691 33.6 62.975 33.6C62.9809 33.6 62.9867 33.6 62.9926 33.6C62.9984 33.6 63.0043 33.6 63.0101 33.6C63.016 33.6 63.0218 33.6 63.0277 33.6C63.0335 33.6 63.0394 33.6 63.0452 33.6C63.051 33.6 63.0569 33.6 63.0627 33.6C63.0685 33.6 63.0744 33.6 63.0802 33.6C63.086 33.6 63.0919 33.6 63.0977 33.6C63.1035 33.6 63.1093 33.6 63.1151 33.6C63.121 33.6 63.1268 33.6 63.1326 33.6C63.1384 33.6 63.1442 33.6 63.15 33.6C63.1558 33.6 63.1616 33.6 63.1674 33.6C63.1732 33.6 63.179 33.6 63.1848 33.6C63.1906 33.6 63.1964 33.6 63.2022 33.6C63.208 33.6 63.2138 33.6 63.2196 33.6C63.2254 33.6 63.2312 33.6 63.237 33.6C63.2427 33.6 63.2485 33.6 63.2543 33.6C63.2601 33.6 63.2659 33.6 63.2716 33.6C63.2774 33.6 63.2832 33.6 63.2889 33.6C63.2947 33.6 63.3005 33.6 63.3062 33.6C63.312 33.6 63.3178 33.6 63.3235 33.6C63.3293 33.6 63.335 33.6 63.3408 33.6C63.3465 33.6 63.3523 33.6 63.358 33.6C63.3638 33.6 63.3695 33.6 63.3753 33.6C63.381 33.6 63.3867 33.6 63.3925 33.6C63.3982 33.6 63.404 33.6 63.4097 33.6C63.4154 33.6 63.4211 33.6 63.4269 33.6C63.4326 33.6 63.4383 33.6 63.4441 33.6C63.4498 33.6 63.4555 33.6 63.4612 33.6C63.4669 33.6 63.4726 33.6 63.4784 33.6C63.4841 33.6 63.4898 33.6 63.4955 33.6C63.5012 33.6 63.5069 33.6 63.5126 33.6C63.5183 33.6 63.524 33.6 63.5297 33.6C63.5354 33.6 63.5411 33.6 63.5468 33.6C63.5525 33.6 63.5582 33.6 63.5638 33.6C63.5695 33.6 63.5752 33.6 63.5809 33.6C63.5866 33.6 63.5923 33.6 63.5979 33.6C63.6036 33.6 63.6093 33.6 63.6149 33.6C63.6206 33.6 63.6263 33.6 63.632 33.6C63.6376 33.6 63.6433 33.6 63.6489 33.6C63.6546 33.6 63.6603 33.6 63.6659 33.6C63.6716 33.6 63.6772 33.6 63.6829 33.6C63.6885 33.6 63.6942 33.6 63.6998 33.6C63.7055 33.6 63.7111 33.6 63.7168 33.6C63.7224 33.6 63.728 33.6 63.7337 33.6C63.7393 33.6 63.7449 33.6 63.7506 33.6C63.7562 33.6 63.7618 33.6 63.7675 33.6C63.7731 33.6 63.7787 33.6 63.7843 33.6C63.7899 33.6 63.7956 33.6 63.8012 33.6C63.8068 33.6 63.8124 33.6 63.818 33.6C63.8236 33.6 63.8292 33.6 63.8348 33.6C63.8404 33.6 63.846 33.6 63.8516 33.6C63.8572 33.6 63.8628 33.6 63.8684 33.6C63.874 33.6 63.8796 33.6 63.8852 33.6C63.8908 33.6 63.8964 33.6 63.902 33.6C63.9076 33.6 63.9131 33.6 63.9187 33.6C63.9243 33.6 63.9299 33.6 63.9355 33.6C63.941 33.6 63.9466 33.6 63.9522 33.6C63.9577 33.6 63.9633 33.6 63.9689 33.6C63.9744 33.6 63.98 33.6 63.9856 33.6C63.9911 33.6 63.9967 33.6 64.0022 33.6C64.0078 33.6 64.0133 33.6 64.0189 33.6C64.0244 33.6 64.03 33.6 64.0355 33.6C64.0411 33.6 64.0466 33.6 64.0521 33.6C64.0577 33.6 64.0632 33.6 64.0688 33.6C64.0743 33.6 64.0798 33.6 64.0853 33.6C64.0909 33.6 64.0964 33.6 64.1019 33.6C64.1074 33.6 64.113 33.6 64.1185 33.6C64.124 33.6 64.1295 33.6 64.135 33.6C64.1406 33.6 64.1461 33.6 64.1516 33.6C64.1571 33.6 64.1626 33.6 64.1681 33.6C64.1736 33.6 64.1791 33.6 64.1846 33.6C64.1901 33.6 64.1956 33.6 64.2011 33.6C64.2066 33.6 64.2121 33.6 64.2175 33.6C64.223 33.6 64.2285 33.6 64.234 33.6C64.2395 33.6 64.245 33.6 64.2504 33.6C64.2559 33.6 64.2614 33.6 64.2669 33.6C64.2723 33.6 64.2778 33.6 64.2833 33.6C64.2888 33.6 64.2942 33.6 64.2997 33.6C64.3051 33.6 64.3106 33.6 64.3161 33.6C64.3215 33.6 64.327 33.6 64.3324 33.6C64.3379 33.6 64.3433 33.6 64.3488 33.6C64.3542 33.6 64.3597 33.6 64.3651 33.6C64.3706 33.6 64.376 33.6 64.3814 33.6C64.3869 33.6 64.3923 33.6 64.3977 33.6C64.4032 33.6 64.4086 33.6 64.414 33.6C64.4194 33.6 64.4249 33.6 64.4303 33.6C64.4357 33.6 64.4411 33.6 64.4466 33.6C64.452 33.6 64.4574 33.6 64.4628 33.6C64.4682 33.6 64.4736 33.6 64.479 33.6C64.4844 33.6 64.4898 33.6 64.4952 33.6C64.5006 33.6 64.506 33.6 64.5114 33.6C64.5168 33.6 64.5222 33.6 64.5276 33.6C64.533 33.6 64.5384 33.6 64.5438 33.6C64.5492 33.6 64.5546 33.6 64.5599 33.6C64.5653 33.6 64.5707 33.6 64.5761 33.6C64.5814 33.6 64.5868 33.6 64.5922 33.6C64.5976 33.6 64.6029 33.6 64.6083 33.6C64.6137 33.6 64.619 33.6 64.6244 33.6C64.6297 33.6 64.6351 33.6 64.6405 33.6C64.6458 33.6 64.6512 33.6 64.6565 33.6C64.6619 33.6 64.6672 33.6 64.6726 33.6C64.6779 33.6 64.6833 33.6 64.6886 33.6C64.6939 33.6 64.6993 33.6 64.7046 33.6C64.7099 33.6 64.7153 33.6 64.7206 33.6C64.7259 33.6 64.7313 33.6 64.7366 33.6C64.7419 33.6 64.7472 33.6 64.7526 33.6C64.7579 33.6 64.7632 33.6 64.7685 33.6C64.7738 33.6 64.7791 33.6 64.7845 33.6C64.7898 33.6 64.7951 33.6 64.8004 33.6C64.8057 33.6 64.811 33.6 64.8163 33.6C64.8216 33.6 64.8269 33.6 64.8322 33.6C64.8375 33.6 64.8428 33.6 64.8481 33.6C64.8533 33.6 64.8586 33.6 64.8639 33.6C64.8692 33.6 64.8745 33.6 64.8798 33.6C64.885 33.6 64.8903 33.6 64.8956 33.6C64.9009 33.6 64.9061 33.6 64.9114 33.6C64.9167 33.6 64.9219 33.6 64.9272 33.6C64.9325 33.6 64.9377 33.6 64.943 33.6C64.9482 33.6 64.9535 33.6 64.9588 33.6C64.964 33.6 64.9693 33.6 64.9745 33.6C64.9798 33.6 64.985 33.6 64.9903 33.6C64.9955 33.6 65.0007 33.6 65.006 33.6C65.0112 33.6 65.0165 33.6 65.0217 33.6C65.0269 33.6 65.0322 33.6 65.0374 33.6C65.0426 33.6 65.0478 33.6 65.0531 33.6C65.0583 33.6 65.0635 33.6 65.0687 33.6C65.0739 33.6 65.0792 33.6 65.0844 33.6C65.0896 33.6 65.0948 33.6 65.1 33.6C65.1052 33.6 65.1104 33.6 65.1156 33.6C65.1208 33.6 65.126 33.6 65.1312 33.6C65.1364 33.6 65.1416 33.6 65.1468 33.6C65.152 33.6 65.1572 33.6 65.1624 33.6C65.1676 33.6 65.1728 33.6 65.1779 33.6C65.1831 33.6 65.1883 33.6 65.1935 33.6C65.1987 33.6 65.2038 33.6 65.209 33.6C65.2142 33.6 65.2193 33.6 65.2245 33.6C65.2297 33.6 65.2348 33.6 65.24 33.6C65.2452 33.6 65.2503 33.6 65.2555 33.6C65.2606 33.6 65.2658 33.6 65.271 33.6C65.2761 33.6 65.2813 33.6 65.2864 33.6C65.2916 33.6 65.2967 33.6 65.3018 33.6C65.307 33.6 65.3121 33.6 65.3173 33.6C65.3224 33.6 65.3275 33.6 65.3327 33.6C65.3378 33.6 65.3429 33.6 65.3481 33.6C65.3532 33.6 65.3583 33.6 65.3634 33.6C65.3685 33.6 65.3737 33.6 65.3788 33.6C65.3839 33.6 65.389 33.6 65.3941 33.6C65.3992 33.6 65.4043 33.6 65.4095 33.6C65.4146 33.6 65.4197 33.6 65.4248 33.6C65.4299 33.6 65.435 33.6 65.4401 33.6C65.4452 33.6 65.4503 33.6 65.4553 33.6C65.4604 33.6 65.4655 33.6 65.4706 33.6C65.4757 33.6 65.4808 33.6 65.4859 33.6C65.4909 33.6 65.496 33.6 65.5011 33.6C65.5062 33.6 65.5112 33.6 65.5163 33.6C65.5214 33.6 65.5265 33.6 65.5315 33.6C65.5366 33.6 65.5417 33.6 65.5467 33.6C65.5518 33.6 65.5568 33.6 65.5619 33.6C65.5669 33.6 65.572 33.6 65.577 33.6C65.5821 33.6 65.5871 33.6 65.5922 33.6C65.5972 33.6 65.6023 33.6 65.6073 33.6C65.6124 33.6 65.6174 33.6 65.6224 33.6C65.6275 33.6 65.6325 33.6 65.6375 33.6C65.6426 33.6 65.6476 33.6 65.6526 33.6C65.6576 33.6 65.6627 33.6 65.6677 33.6C65.6727 33.6 65.6777 33.6 65.6827 33.6C65.6878 33.6 65.6928 33.6 65.6978 33.6C65.7028 33.6 65.7078 33.6 65.7128 33.6C65.7178 33.6 65.7228 33.6 65.7278 33.6C65.7328 33.6 65.7378 33.6 65.7428 33.6C65.7478 33.6 65.7528 33.6 65.7578 33.6C65.7628 33.6 65.7677 33.6 65.7727 33.6C65.7777 33.6 65.7827 33.6 65.7877 33.6C65.7927 33.6 65.7976 33.6 65.8026 33.6C65.8076 33.6 65.8126 33.6 65.8175 33.6C65.8225 33.6 65.8275 33.6 65.8324 33.6C65.8374 33.6 65.8424 33.6 65.8473 33.6C65.8523 33.6 65.8572 33.6 65.8622 33.6C65.8671 33.6 65.8721 33.6 65.877 33.6C65.882 33.6 65.8869 33.6 65.8919 33.6C65.8968 33.6 65.9018 33.6 65.9067 33.6C65.9116 33.6 65.9166 33.6 65.9215 33.6C65.9264 33.6 65.9314 33.6 65.9363 33.6C65.9412 33.6 65.9462 33.6 65.9511 33.6C65.956 33.6 65.9609 33.6 65.9658 33.6C65.9708 33.6 65.9757 33.6 65.9806 33.6C65.9855 33.6 65.9904 33.6 65.9953 33.6C66.0002 33.6 66.0051 33.6 66.01 33.6C66.0149 33.6 66.0198 33.6 66.0247 33.6C66.0296 33.6 66.0345 33.6 66.0394 33.6C66.0443 33.6 66.0492 33.6 66.0541 33.6C66.059 33.6 66.0639 33.6 66.0688 33.6C66.0736 33.6 66.0785 33.6 66.0834 33.6C66.0883 33.6 66.0931 33.6 66.098 33.6C66.1029 33.6 66.1078 33.6 66.1126 33.6C66.1175 33.6 66.1224 33.6 66.1272 33.6C66.1321 33.6 66.1369 33.6 66.1418 33.6C66.1467 33.6 66.1515 33.6 66.1564 33.6C66.1612 33.6 66.1661 33.6 66.1709 33.6C66.1758 33.6 66.1806 33.6 66.1855 33.6C66.1903 33.6 66.1951 33.6 66.2 33.6C66.2048 33.6 66.2096 33.6 66.2145 33.6C66.2193 33.6 66.2241 33.6 66.229 33.6C66.2338 33.6 66.2386 33.6 66.2434 33.6C66.2483 33.6 66.2531 33.6 66.2579 33.6C66.2627 33.6 66.2675 33.6 66.2723 33.6C66.2771 33.6 66.282 33.6 66.2868 33.6C66.2916 33.6 66.2964 33.6 66.3012 33.6C66.306 33.6 66.3108 33.6 66.3156 33.6C66.3204 33.6 66.3252 33.6 66.33 33.6C66.3347 33.6 66.3395 33.6 66.3443 33.6C66.3491 33.6 66.3539 33.6 66.3587 33.6C66.3635 33.6 66.3682 33.6 66.373 33.6C66.3778 33.6 66.3826 33.6 66.3873 33.6C66.3921 33.6 66.3969 33.6 66.4016 33.6C66.4064 33.6 66.4112 33.6 66.4159 33.6C66.4207 33.6 66.4254 33.6 66.4302 33.6C66.435 33.6 66.4397 33.6 66.4445 33.6C66.4492 33.6 66.454 33.6 66.4587 33.6C66.4634 33.6 66.4682 33.6 66.4729 33.6C66.4777 33.6 66.4824 33.6 66.4871 33.6C66.4919 33.6 66.4966 33.6 66.5013 33.6C66.5061 33.6 66.5108 33.6 66.5155 33.6C66.5202 33.6 66.525 33.6 66.5297 33.6C66.5344 33.6 66.5391 33.6 66.5438 33.6C66.5486 33.6 66.5533 33.6 66.558 33.6C66.5627 33.6 66.5674 33.6 66.5721 33.6C66.5768 33.6 66.5815 33.6 66.5862 33.6C66.5909 33.6 66.5956 33.6 66.6003 33.6C66.605 33.6 66.6097 33.6 66.6144 33.6C66.6191 33.6 66.6238 33.6 66.6284 33.6C66.6331 33.6 66.6378 33.6 66.6425 33.6C66.6472 33.6 66.6518 33.6 66.6565 33.6C66.6612 33.6 66.6659 33.6 66.6705 33.6C66.6752 33.6 66.6799 33.6 66.6845 33.6C66.6892 33.6 66.6939 33.6 66.6985 33.6C66.7032 33.6 66.7078 33.6 66.7125 33.6C66.7171 33.6 66.7218 33.6 66.7264 33.6C66.7311 33.6 66.7357 33.6 66.7404 33.6C66.745 33.6 66.7497 33.6 66.7543 33.6C66.7589 33.6 66.7636 33.6 66.7682 33.6C66.7728 33.6 66.7775 33.6 66.7821 33.6C66.7867 33.6 66.7914 33.6 66.796 33.6C66.8006 33.6 66.8052 33.6 66.8098 33.6C66.8145 33.6 66.8191 33.6 66.8237 33.6C66.8283 33.6 66.8329 33.6 66.8375 33.6C66.8421 33.6 66.8467 33.6 66.8513 33.6C66.8559 33.6 66.8605 33.6 66.8651 33.6C66.8697 33.6 66.8743 33.6 66.8789 33.6C66.8835 33.6 66.8881 33.6 66.8927 33.6C66.8973 33.6 66.9019 33.6 66.9065 33.6C66.911 33.6 66.9156 33.6 66.9202 33.6C66.9248 33.6 66.9293 33.6 66.9339 33.6C66.9385 33.6 66.9431 33.6 66.9476 33.6C66.9522 33.6 66.9568 33.6 66.9613 33.6C66.9659 33.6 66.9704 33.6 66.975 33.6C66.9796 33.6 66.9841 33.6 66.9887 33.6C66.9932 33.6 66.9978 33.6 67.0023 33.6C67.0069 33.6 67.0114 33.6 67.016 33.6C67.0205 33.6 67.025 33.6 67.0296 33.6C67.0341 33.6 67.0386 33.6 67.0432 33.6C67.0477 33.6 67.0522 33.6 67.0568 33.6C67.0613 33.6 67.0658 33.6 67.0703 33.6C67.0749 33.6 67.0794 33.6 67.0839 33.6C67.0884 33.6 67.0929 33.6 67.0974 33.6C67.1019 33.6 67.1065 33.6 67.111 33.6C67.1155 33.6 67.12 33.6 67.1245 33.6C67.129 33.6 67.1335 33.6 67.138 33.6C67.1425 33.6 67.147 33.6 67.1514 33.6C67.1559 33.6 67.1604 33.6 67.1649 33.6C67.1694 33.6 67.1739 33.6 67.1784 33.6C67.1828 33.6 67.1873 33.6 67.1918 33.6C67.1963 33.6 67.2008 33.6 67.2052 33.6C67.2097 33.6 67.2142 33.6 67.2186 33.6C67.2231 33.6 67.2276 33.6 67.232 33.6C67.2365 33.6 67.2409 33.6 67.2454 33.6C67.2498 33.6 67.2543 33.6 67.2587 33.6C67.2632 33.6 67.2676 33.6 67.2721 33.6C67.2765 33.6 67.281 33.6 67.2854 33.6C67.2899 33.6 67.2943 33.6 67.2987 33.6C67.3032 33.6 67.3076 33.6 67.312 33.6C67.3165 33.6 67.3209 33.6 67.3253 33.6C67.3297 33.6 67.3342 33.6 67.3386 33.6C67.343 33.6 67.3474 33.6 67.3518 33.6C67.3563 33.6 67.3607 33.6 67.3651 33.6C67.3695 33.6 67.3739 33.6 67.3783 33.6C67.3827 33.6 67.3871 33.6 67.3915 33.6C67.3959 33.6 67.4003 33.6 67.4047 33.6C67.4091 33.6 67.4135 33.6 67.4179 33.6C67.4223 33.6 67.4266 33.6 67.431 33.6C67.4354 33.6 67.4398 33.6 67.4442 33.6C67.4486 33.6 67.4529 33.6 67.4573 33.6C67.4617 33.6 67.4661 33.6 67.4704 33.6C67.4748 33.6 67.4792 33.6 67.4835 33.6C67.4879 33.6 67.4922 33.6 67.4966 33.6C67.501 33.6 67.5053 33.6 67.5097 33.6C67.514 33.6 67.5184 33.6 67.5227 33.6C67.5271 33.6 67.5314 33.6 67.5358 33.6C67.5401 33.6 67.5445 33.6 67.5488 33.6C67.5531 33.6 67.5575 33.6 67.5618 33.6C67.5661 33.6 67.5705 33.6 67.5748 33.6C67.5791 33.6 67.5834 33.6 67.5878 33.6C67.5921 33.6 67.5964 33.6 67.6007 33.6C67.605 33.6 67.6094 33.6 67.6137 33.6C67.618 33.6 67.6223 33.6 67.6266 33.6C67.6309 33.6 67.6352 33.6 67.6395 33.6C67.6438 33.6 67.6481 33.6 67.6524 33.6C67.6567 33.6 67.661 33.6 67.6653 33.6C67.6696 33.6 67.6739 33.6 67.6782 33.6C67.6825 33.6 67.6868 33.6 67.691 33.6C67.6953 33.6 67.6996 33.6 67.7039 33.6C67.7082 33.6 67.7124 33.6 67.7167 33.6C67.721 33.6 67.7252 33.6 67.7295 33.6C67.7338 33.6 67.738 33.6 67.7423 33.6C67.7466 33.6 67.7508 33.6 67.7551 33.6C67.7593 33.6 67.7636 33.6 67.7679 33.6C67.7721 33.6 67.7764 33.6 67.7806 33.6C67.7848 33.6 67.7891 33.6 67.7933 33.6C67.7976 33.6 67.8018 33.6 67.8061 33.6C67.8103 33.6 67.8145 33.6 67.8188 33.6C67.823 33.6 67.8272 33.6 67.8314 33.6C67.8357 33.6 67.8399 33.6 67.8441 33.6C67.8483 33.6 67.8526 33.6 67.8568 33.6C67.861 33.6 67.8652 33.6 67.8694 33.6C67.8736 33.6 67.8778 33.6 67.882 33.6C67.8862 33.6 67.8905 33.6 67.8947 33.6C67.8989 33.6 67.9031 33.6 67.9072 33.6C67.9114 33.6 67.9156 33.6 67.9198 33.6C67.924 33.6 67.9282 33.6 67.9324 33.6C67.9366 33.6 67.9408 33.6 67.9449 33.6C67.9491 33.6 67.9533 33.6 67.9575 33.6C67.9617 33.6 67.9658 33.6 67.97 33.6C67.9742 33.6 67.9783 33.6 67.9825 33.6C67.9867 33.6 67.9908 33.6 67.995 33.6C67.9992 33.6 68.0033 33.6 68.0075 33.6C68.0116 33.6 68.0158 33.6 68.0199 33.6C68.0241 33.6 68.0282 33.6 68.0324 33.6C68.0365 33.6 68.0407 33.6 68.0448 33.6C68.0489 33.6 68.0531 33.6 68.0572 33.6C68.0613 33.6 68.0655 33.6 68.0696 33.6C68.0737 33.6 68.0779 33.6 68.082 33.6C68.0861 33.6 68.0902 33.6 68.0944 33.6C68.0985 33.6 68.1026 33.6 68.1067 33.6C68.1108 33.6 68.1149 33.6 68.119 33.6C68.1232 33.6 68.1273 33.6 68.1314 33.6C68.1355 33.6 68.1396 33.6 68.1437 33.6C68.1478 33.6 68.1519 33.6 68.156 33.6C68.1601 33.6 68.1642 33.6 68.1682 33.6C68.1723 33.6 68.1764 33.6 68.1805 33.6C68.1846 33.6 68.1887 33.6 68.1927 33.6C68.1968 33.6 68.2009 33.6 68.205 33.6C68.2091 33.6 68.2131 33.6 68.2172 33.6C68.2213 33.6 68.2253 33.6 68.2294 33.6C68.2335 33.6 68.2375 33.6 68.2416 33.6C68.2456 33.6 68.2497 33.6 68.2537 33.6C68.2578 33.6 68.2619 33.6 68.2659 33.6C68.2699 33.6 68.274 33.6 68.278 33.6C68.2821 33.6 68.2861 33.6 68.2902 33.6C68.2942 33.6 68.2982 33.6 68.3023 33.6C68.3063 33.6 68.3103 33.6 68.3144 33.6C68.3184 33.6 68.3224 33.6 68.3264 33.6C68.3305 33.6 68.3345 33.6 68.3385 33.6C68.3425 33.6 68.3465 33.6 68.3505 33.6C68.3546 33.6 68.3586 33.6 68.3626 33.6C68.3666 33.6 68.3706 33.6 68.3746 33.6C68.3786 33.6 68.3826 33.6 68.3866 33.6C68.3906 33.6 68.3946 33.6 68.3986 33.6C68.4026 33.6 68.4066 33.6 68.4106 33.6C68.4145 33.6 68.4185 33.6 68.4225 33.6C68.4265 33.6 68.4305 33.6 68.4344 33.6C68.4384 33.6 68.4424 33.6 68.4464 33.6C68.4503 33.6 68.4543 33.6 68.4583 33.6C68.4622 33.6 68.4662 33.6 68.4702 33.6C68.4741 33.6 68.4781 33.6 68.4821 33.6C68.486 33.6 68.49 33.6 68.4939 33.6C68.4979 33.6 68.5018 33.6 68.5058 33.6C68.5097 33.6 68.5137 33.6 68.5176 33.6C68.5215 33.6 68.5255 33.6 68.5294 33.6C68.5334 33.6 68.5373 33.6 68.5412 33.6C68.5452 33.6 68.5491 33.6 68.553 33.6C68.5569 33.6 68.5609 33.6 68.5648 33.6C68.5687 33.6 68.5726 33.6 68.5765 33.6C68.5805 33.6 68.5844 33.6 68.5883 33.6C68.5922 33.6 68.5961 33.6 68.6 33.6V32.6ZM60.6 32.6L60.64 31.6008C57.3431 31.4689 53.7077 31.1389 49.7322 30.6088L49.6 31.6L49.4678 32.5913C53.4923 33.1279 57.1903 33.4644 60.56 33.5992L60.6 32.6ZM49.6 31.6L48.8729 32.2865L79.2729 64.4865L80 63.8L80.7271 63.1135L50.3271 30.9135L49.6 31.6ZM80 63.8H79V71.6H80H81V63.8H80ZM80 71.6L79.245 70.9443L42.245 113.544L43 114.2L43.755 114.856L80.755 72.2558L80 71.6ZM43 114.2L43.0933 115.196C47.3326 114.798 52.1092 114.533 57.425 114.4L57.4 113.4L57.375 112.4C52.0241 112.534 47.2008 112.802 42.9067 113.204L43 114.2ZM57.4 113.4L57.4487 114.399C62.9014 114.133 68.0183 114 72.8 114V113V112C67.9817 112 62.832 112.134 57.3513 112.401L57.4 113.4ZM72.8 113V114H112V113V112H72.8V113ZM112 113H111V144.4H112H113V113H112ZM112 144.4V143.4H1V144.4V145.4H112V144.4ZM198.27 144.4V145.4H199.27V144.4H198.27ZM123.87 144.4H122.87V145.4H123.87V144.4ZM123.87 122.4L123.513 121.466L122.87 121.712V122.4H123.87ZM141.67 115.6L142.027 116.534L142.67 116.288V115.6H141.67ZM141.67 30.2H142.67V29.5043L142.018 29.2624L141.67 30.2ZM123.87 23.6H122.87V24.2958L123.523 24.5376L123.87 23.6ZM123.87 1.60002V0.600015H122.87V1.60002H123.87ZM198.27 1.60002H199.27V0.600015H198.27V1.60002ZM198.27 23.6L198.618 24.5376L199.27 24.2958V23.6H198.27ZM180.47 30.2L180.123 29.2624L179.47 29.5043V30.2H180.47ZM180.47 115.6H179.47V116.288L180.113 116.534L180.47 115.6ZM198.27 122.4H199.27V121.712L198.627 121.466L198.27 122.4ZM198.27 144.4V143.4H123.87V144.4V145.4H198.27V144.4ZM123.87 144.4H124.87V122.4H123.87H122.87V144.4H123.87ZM123.87 122.4L124.227 123.334L142.027 116.534L141.67 115.6L141.313 114.666L123.513 121.466L123.87 122.4ZM141.67 115.6H142.67V30.2H141.67H140.67V115.6H141.67ZM141.67 30.2L142.018 29.2624L124.218 22.6624L123.87 23.6L123.523 24.5376L141.323 31.1376L141.67 30.2ZM123.87 23.6H124.87V1.60002H123.87H122.87V23.6H123.87ZM123.87 1.60002V2.60002H198.27V1.60002V0.600015H123.87V1.60002ZM198.27 1.60002H197.27V23.6H198.27H199.27V1.60002H198.27ZM198.27 23.6L197.923 22.6624L180.123 29.2624L180.47 30.2L180.818 31.1376L198.618 24.5376L198.27 23.6ZM180.47 30.2H179.47V115.6H180.47H181.47V30.2H180.47ZM180.47 115.6L180.113 116.534L197.913 123.334L198.27 122.4L198.627 121.466L180.827 114.666L180.47 115.6ZM198.27 122.4H197.27V144.4H198.27H199.27V122.4H198.27ZM220.556 144.4H219.556V145.4H220.556V144.4ZM220.556 1.60002V0.600015H219.556V1.60002H220.556ZM300.956 1.60002H301.956V0.600015H300.956V1.60002ZM300.956 32.6V33.6H301.956V32.6H300.956ZM258.556 32.6V31.6H257.556V32.6H258.556ZM258.556 144.4V145.4H259.556V144.4H258.556ZM220.556 144.4H221.556V1.60002H220.556H219.556V144.4H220.556ZM220.556 1.60002V2.60002H300.956V1.60002V0.600015H220.556V1.60002ZM300.956 1.60002H299.956V32.6H300.956H301.956V1.60002H300.956ZM300.956 32.6V31.6H258.556V32.6V33.6H300.956V32.6ZM258.556 32.6H257.556V144.4H258.556H259.556V32.6H258.556ZM258.556 144.4V143.4H220.556V144.4V145.4H258.556V144.4ZM383.805 144.4L382.837 144.653L383.032 145.4H383.805V144.4ZM376.805 117.6L377.772 117.347L377.577 116.6H376.805V117.6ZM330.405 117.6V116.6H329.638L329.439 117.341L330.405 117.6ZM323.205 144.4V145.4H323.971L324.17 144.659L323.205 144.4ZM280.805 144.4L279.854 144.091L279.428 145.4H280.805V144.4ZM327.405 1.00002V2.28882e-05H326.678L326.454 0.690967L327.405 1.00002ZM378.805 1.00002L379.755 0.687374L379.528 2.28882e-05H378.805V1.00002ZM426.005 144.4V145.4H427.387L426.955 144.087L426.005 144.4ZM362.605 62.6L361.638 62.8545L361.638 62.8561L362.605 62.6ZM359.805 51.8L358.835 52.0426L358.836 52.0491L359.805 51.8ZM356.205 37L355.232 37.2305L355.232 37.2305L356.205 37ZM353.405 24.6L354.384 24.3961L352.418 24.4356L353.405 24.6ZM350.805 36.6L349.835 36.3575L349.831 36.3702L349.829 36.3831L350.805 36.6ZM347.405 50.8L346.436 50.551L346.433 50.564L346.43 50.5772L347.405 50.8ZM344.605 62.6L345.571 62.8562L345.575 62.8426L344.605 62.6ZM338.405 86L337.438 85.7439L337.105 87H338.405V86ZM368.805 86V87H370.104L369.771 85.7439L368.805 86ZM383.805 144.4L384.772 144.147L377.772 117.347L376.805 117.6L375.837 117.853L382.837 144.653L383.805 144.4ZM376.805 117.6V116.6H330.405V117.6V118.6H376.805V117.6ZM330.405 117.6L329.439 117.341L322.239 144.141L323.205 144.4L324.17 144.659L331.37 117.859L330.405 117.6ZM323.205 144.4V143.4H280.805V144.4V145.4H323.205V144.4ZM280.805 144.4L281.756 144.709L328.356 1.30908L327.405 1.00002L326.454 0.690967L279.854 144.091L280.805 144.4ZM327.405 1.00002V2.00002H378.805V1.00002V2.28882e-05H327.405V1.00002ZM378.805 1.00002L377.855 1.31267L425.055 144.713L426.005 144.4L426.955 144.087L379.755 0.687374L378.805 1.00002ZM426.005 144.4V143.4H383.805V144.4V145.4H426.005V144.4ZM362.605 62.6L363.572 62.3455C362.906 59.8149 361.973 56.2171 360.773 51.551L359.805 51.8L358.836 52.0491C360.036 56.7163 360.97 60.3184 361.638 62.8545L362.605 62.6ZM359.805 51.8L360.775 51.5575C359.576 46.7617 358.377 41.8324 357.178 36.7696L356.205 37L355.232 37.2305C356.433 42.301 357.633 47.2383 358.835 52.0426L359.805 51.8ZM356.205 37L357.178 36.7696C355.979 31.7072 355.048 27.5836 354.384 24.3961L353.405 24.6L352.426 24.804C353.095 28.0164 354.031 32.1595 355.232 37.2305L356.205 37ZM353.405 24.6L352.418 24.4356C351.891 27.5996 351.031 31.5714 349.835 36.3575L350.805 36.6L351.775 36.8426C352.978 32.0286 353.852 28.0005 354.391 24.7644L353.405 24.6ZM350.805 36.6L349.829 36.3831C348.764 41.1726 347.633 45.8952 346.436 50.551L347.405 50.8L348.373 51.0491C349.576 46.3715 350.712 41.6275 351.781 36.8169L350.805 36.6ZM347.405 50.8L346.43 50.5772C345.364 55.2399 344.432 59.1662 343.635 62.3575L344.605 62.6L345.575 62.8426C346.377 59.6338 347.312 55.6934 348.38 51.0228L347.405 50.8ZM344.605 62.6L343.638 62.3439L337.438 85.7439L338.405 86L339.371 86.2561L345.571 62.8561L344.605 62.6ZM338.405 86V87H368.805V86V85H338.405V86ZM368.805 86L369.771 85.7439L363.571 62.3439L362.605 62.6L361.638 62.8561L367.838 86.2561L368.805 86Z" fill="#F5F5F5" mask="url(#path-1-outside-1_43_2)"/>
</svg>
